# xmcd
#
# Track frame offsets:
#	150
#	16035
#	35848
#	49325
#	65483
#	75573
#	90664
#	103920
#	114018
#	127981
#	141857
#	161718
#	174868
#	186670
#	198377
#	210222
#	231800
#	248016
#	266923
#	290692
#	306120
#	320133
#	333126
# Disc length: 4808 seconds
# Revision: 1
# Processed by: cddbd v1.5.2PL0 Copyright (c) Steve Scherf et al.
#
# Submitted via: libkcddb 0.31
#
DISCID=4812c617
DTITLE=São João da Maranhensidade - São João da Maranhensidade 2008
DYEAR=2008
DGENRE=Sertanejo
TTITLE0=Mariá
TTITLE1=Maranhão Meu Tesouro Meu Torrão
TTITLE2=Você Pediu
TTITLE3=Ferroada
TTITLE4=Diretor dos Indios
TTITLE5=Nosso Amor
TTITLE6=Soprei no Meu Apito
TTITLE7=Passarinho Verde
TTITLE8=Pulando Fogueira
TTITLE9=Se Não Existisse o Sol
TTITLE10=Talaveira
TTITLE11=Eu Plantei Meu Pé de Lírio
TTITLE12=A Volta do Guarnicê
TTITLE13=Natureza
TTITLE14=A Lua é uma Beleza
TTITLE15=Natureza
TTITLE16=Dança Grande
TTITLE17=Amanhecer do Mundo
TTITLE18=La Vai
TTITLE19=Cupim no Coqueiro
TTITLE20=De Joelhos no Altar
TTITLE21=Bela Mocidade
TTITLE22=Pout-Pourri
EXTD=
EXTT0=Mestre Leonardo
EXTT1=Humberto de Maracanã
EXTT2=Francisco Garcia
EXTT3=Daffé
EXTT4=Apolônio
EXTT5=Éno Cabeça
EXTT6=Francisco Macedo
EXTT7=Dona Teté
EXTT8=Erinaldo Gomes
EXTT9=Chagas
EXTT10=Zé Carlos
EXTT11=Elza S. Mendes
EXTT12=Manel Onça
EXTT13=Lobato
EXTT14=Juca do Bolo
EXTT15=Lobato
EXTT16=Laurentino - Joel
EXTT17=Chiador
EXTT18=Basilio
EXTT19=Erivaldo
EXTT20=Zé Olhinho
EXTT21=Donato
EXTT22=Francisco Macedo
PLAYORDER=
